<svg width="327" height="69" viewBox="0 0 327 69" fill="none" xmlns="http://www.w3.org/2000/svg">
<path d="M8.01891 54.7423C7.79909 54.9606 7.57926 55.0697 7.35944 55.0697C7.19823 55.0697 7.05535 55.0078 6.93078 54.8842C6.80621 54.7605 6.72195 54.5823 6.67798 54.3495C6.63402 54.0731 6.61204 53.7748 6.61204 53.4548C6.61204 53.0765 6.656 52.7201 6.74393 52.3855C6.97841 51.5998 7.26418 50.7124 7.60125 49.7231C7.95297 48.7047 8.20943 47.9336 8.37063 47.4098L8.54649 46.8643L10.1512 43.0453C10.2098 42.9289 10.2868 42.7834 10.382 42.6088C10.4773 42.4342 10.5762 42.2306 10.6788 41.9978L11.4702 40.2738C11.6167 39.9392 11.8512 39.4154 12.1736 38.7025C12.496 37.9896 12.7891 37.3641 13.0529 36.8258C14.2546 34.3525 15.1779 32.5121 15.8227 31.3046C17.5813 27.9875 19.0541 25.3251 20.2412 23.3174C21.1205 21.7753 22.498 19.5057 24.3739 16.5087L24.9894 15.5267C25.2678 15.0902 25.5389 14.6901 25.8027 14.3264C25.9639 14.1082 26.1911 13.7808 26.4842 13.3444C26.5282 13.3007 26.5538 13.228 26.5611 13.1261C26.5685 13.0243 26.5794 12.937 26.5941 12.8643H24.5497L23.8903 12.8424C23.3041 12.8134 22.8571 12.7988 22.5493 12.7988C22.4321 12.7988 22.2965 12.8061 22.1427 12.8206C21.9888 12.8352 21.8752 12.8497 21.8019 12.8643C21.6993 12.8788 21.5711 12.8934 21.4172 12.9079C21.2634 12.9225 21.0765 12.9297 20.8567 12.9297H13.8663H12.1077C10.9206 12.9297 10.0266 12.9443 9.42579 12.9734C8.38529 13.0316 7.22022 13.1334 5.93058 13.2789L4.54568 13.4098C4.48706 13.4098 4.35883 13.4171 4.16099 13.4317C3.96315 13.4462 3.78362 13.4753 3.62242 13.519C3.51984 13.5481 3.35863 13.5844 3.13881 13.6281C2.91898 13.6717 2.73213 13.7554 2.57825 13.879C2.42438 14.0027 2.30347 14.1882 2.21554 14.4355C2.12761 14.6538 1.96641 14.7629 1.73193 14.7629C1.60003 14.7629 1.46081 14.7265 1.31426 14.6538C1.16771 14.581 1.04314 14.4792 0.940559 14.3482C0.794009 14.1591 0.720734 13.9845 0.720734 13.8245C0.720734 13.6063 0.815991 13.3735 1.00651 13.1261C1.21168 12.8643 1.44616 12.6824 1.70995 12.5806C1.97374 12.4787 2.30347 12.3987 2.69916 12.3405C4.88275 12.0059 6.74393 11.795 8.2827 11.7077C9.44045 11.6349 11.1844 11.584 13.5145 11.5549C14.3938 11.5549 15.0533 11.5476 15.493 11.5331H16.5921L21.1424 11.5549L24.242 11.5331C24.9308 11.5185 25.9639 11.5113 27.3415 11.5113C27.5027 11.5113 27.6346 11.4785 27.7372 11.4131C27.8398 11.3476 27.9424 11.2421 28.0449 11.0966C28.3527 10.6893 28.8143 10.1219 29.4298 9.39444C29.591 9.21986 29.7962 9.03073 30.0453 8.82705C30.2945 8.63792 30.5143 8.54335 30.7048 8.54335C30.8514 8.54335 30.9759 8.60882 31.0785 8.73976C31.2397 8.94344 31.3203 9.19804 31.3203 9.50355C31.3203 9.70723 31.2764 9.89637 31.1884 10.0709C31.1005 10.2455 30.9686 10.4638 30.7927 10.7256L30.485 11.2276C30.6169 11.2421 30.7708 11.2676 30.9466 11.3039C31.1225 11.3403 31.2617 11.3585 31.3643 11.3585L38.7064 11.2057L44.7516 11.1403C45.9973 11.1403 46.9279 11.1475 47.5434 11.1621C48.6279 11.1912 50.3132 11.2494 52.5994 11.3367L53.8304 11.3803C54.7536 11.3803 55.5743 11.4094 56.2924 11.4676C56.8346 11.4967 57.5967 11.5695 58.5786 11.6858L59.6777 11.795C59.8536 11.824 59.9855 11.8822 60.0734 11.9695C60.1613 12.0568 60.2053 12.2169 60.2053 12.4496C60.2053 12.8424 60.0294 13.068 59.6777 13.1261C59.5898 13.1407 59.4835 13.148 59.359 13.148C59.2344 13.148 59.1282 13.1552 59.0402 13.1698L56.9959 13.148C56.5415 13.148 56.1972 13.1552 55.9627 13.1698C55.7282 13.1843 55.4644 13.2207 55.1713 13.2789C54.8782 13.3371 54.673 13.3735 54.5558 13.388L54.2041 13.4317C54.0868 13.4317 53.9989 13.388 53.9403 13.3007C53.8817 13.2134 53.7864 13.0025 53.6545 12.6679C52.2037 12.6097 50.4597 12.5806 48.4227 12.5806C46.2977 12.5806 43.7661 12.6169 40.8277 12.6897C37.8894 12.7624 34.9328 12.8424 31.9578 12.9297L28.3307 13.0389C28.3454 13.0098 27.7152 13.97 26.4402 15.9195C25.3118 17.5635 24.5351 18.7419 24.1101 19.4548C22.9377 21.3606 21.6554 23.5356 20.2631 25.9798C18.5632 28.9623 17.2516 31.3846 16.3283 33.2468C15.3464 35.1818 13.9322 38.1133 12.0857 42.0414C11.4848 43.3072 10.9206 44.5802 10.393 45.8604C9.41114 48.2755 8.94218 49.8904 8.98614 50.7051C8.98614 50.5887 9.01545 50.9742 9.07407 51.8617C9.11804 52.1672 9.14002 52.4218 9.14002 52.6255C9.14002 52.9456 9.06308 53.2511 8.9092 53.5421C8.75533 53.833 8.45856 54.2331 8.01891 54.7423ZM26.4622 44.311C26.3157 44.3256 26.0958 44.3328 25.8027 44.3328C24.3079 44.3328 23.0403 43.9036 21.9998 43.0453C21.5601 42.6816 21.2267 42.2487 20.9996 41.7468C20.7724 41.2449 20.6588 40.7102 20.6588 40.1428C20.6588 39.6191 20.7614 39.0881 20.9666 38.5498C21.3476 37.5605 21.9924 36.4766 22.901 35.2982C23.2381 34.8763 23.6008 34.5016 23.9892 34.1743C24.3775 33.8469 24.8795 33.4578 25.495 33.0068L25.9786 32.6358C26.2131 32.4612 26.5025 32.3303 26.8469 32.243C27.1913 32.1557 27.5393 32.112 27.8911 32.112C28.4626 32.112 28.9352 32.3121 29.3089 32.7122C29.6826 33.1122 29.8695 33.596 29.8695 34.1634C29.8695 34.9344 29.6277 35.5819 29.1441 36.1056C27.913 37.4732 26.4182 38.6953 24.6596 39.7718C24.2933 39.9901 23.7584 40.2083 23.0549 40.4265L22.1536 40.7321C22.4321 41.2558 22.7142 41.6741 23 41.9869C23.2857 42.2997 23.6411 42.5215 24.0661 42.6525C24.1687 42.6816 24.3739 42.7434 24.6816 42.838C24.9894 42.9325 25.2715 43.0053 25.5279 43.0562C25.7844 43.1071 26.0226 43.1326 26.2424 43.1326C26.8139 43.1326 27.3488 42.958 27.8471 42.6088C27.9057 42.6234 28.001 42.6306 28.1329 42.6306C28.382 42.6306 28.6311 42.5906 28.8803 42.5106C29.1294 42.4306 29.4152 42.3106 29.7376 42.1505C30.2212 41.9178 30.6242 41.765 30.9466 41.6923C31.1958 41.6486 31.4522 41.5468 31.716 41.3867C31.9798 41.2267 32.1483 41.1249 32.2216 41.0812L32.7932 40.7321C33.7018 40.1938 34.6836 39.59 35.7388 38.9208C35.8854 38.8335 36.0356 38.7098 36.1894 38.5498C36.3433 38.3897 36.4496 38.2806 36.5082 38.2224C36.8306 37.9315 37.2922 37.5023 37.8931 36.9349C37.9957 37.1386 38.047 37.3204 38.047 37.4804C38.047 37.7569 37.8931 38.0333 37.5853 38.3097C36.5741 39.2845 35.7901 39.9901 35.2332 40.4265C34.5884 40.9357 33.5772 41.6559 32.1996 42.587C31.1738 43.2417 29.9501 43.7 28.5286 43.9618L27.8031 44.0928C27.2902 44.2237 26.8432 44.2965 26.4622 44.311ZM22.3735 39.2045C22.4907 39.1899 22.597 39.179 22.6922 39.1717C22.7875 39.1644 22.8498 39.1535 22.8791 39.139L23.4066 38.8116C23.5532 38.7243 24.0112 38.4479 24.7805 37.9824C25.5499 37.5168 26.257 37.0513 26.9019 36.5857C27.2243 36.3675 27.576 35.9747 27.957 35.4073L28.2428 35.0363C28.4186 34.789 28.5066 34.5635 28.5066 34.3598C28.5066 34.1707 28.4406 33.9888 28.3087 33.8142C28.2208 33.7124 28.1072 33.6287 27.968 33.5632C27.8288 33.4978 27.6786 33.465 27.5174 33.465C27.2829 33.465 27.085 33.516 26.9238 33.6178C26.5868 33.836 26.2277 34.0979 25.8467 34.4034L25.2312 34.8617C24.7183 35.2109 24.2786 35.6291 23.9122 36.1165C23.5459 36.6039 23.1795 37.1895 22.8131 37.8733C22.7398 38.0042 22.6446 38.2733 22.5273 38.6807L22.3735 39.2045ZM40.5969 34.6217C40.509 34.5635 40.3808 34.4871 40.2122 34.3925C40.0437 34.298 39.9118 34.1961 39.8166 34.087C39.7213 33.9779 39.6737 33.8579 39.6737 33.7269C39.6737 33.5669 39.7433 33.4032 39.8825 33.2359C40.0217 33.0686 40.1939 32.9558 40.3991 32.8977C40.6629 32.8104 40.8827 32.7667 41.0586 32.7667C41.1465 32.7667 41.2491 32.7813 41.3663 32.8104C41.5275 32.8686 41.6814 32.9886 41.8279 33.1704C41.9745 33.3523 42.0478 33.516 42.0478 33.6614C42.0478 33.7924 42.0038 33.9088 41.9159 34.0106C41.8279 34.1125 41.7107 34.1925 41.5642 34.2507L40.5969 34.6217ZM34.6177 46.2751C34.3832 46.2751 34.1927 46.2023 34.0462 46.0568C33.8996 45.9113 33.819 45.7077 33.8043 45.4458C33.7311 44.3692 34.0095 43.1762 34.6397 41.8668C35.6802 39.8155 36.9332 37.9242 38.3987 36.1929C38.5159 36.0474 38.6771 35.8947 38.8823 35.7346C39.0875 35.5891 39.2487 35.5164 39.3659 35.5164C39.4685 35.5164 39.5638 35.5673 39.6517 35.6692C39.7543 35.7855 39.8349 35.9274 39.8935 36.0947C39.9521 36.262 39.9668 36.3966 39.9375 36.4984C39.8349 36.7603 39.5857 37.1167 39.1901 37.5677C39.1461 37.6259 39.0655 37.6987 38.9482 37.786C38.831 37.8733 38.7504 37.9533 38.7064 38.026L37.959 39.3136C37.2849 40.4484 36.8672 41.1321 36.706 41.3649C36.0759 42.296 35.6142 43.329 35.3211 44.4638C35.3651 44.5365 35.4494 44.6674 35.5739 44.8566C35.6985 45.0457 35.7608 45.2203 35.7608 45.3803C35.7608 45.6276 35.6472 45.8386 35.4201 46.0132C35.1929 46.1878 34.9255 46.2751 34.6177 46.2751ZM45.1693 34.7089C44.5098 34.7089 44.1801 34.3962 44.1801 33.7706C44.1801 33.4505 44.2533 33.2032 44.3999 33.0286C44.5464 32.854 44.7589 32.7667 45.0374 32.7667C45.7555 32.7667 46.1145 33.0504 46.1145 33.6178C46.1145 33.8651 46.0083 34.1088 45.7958 34.3489C45.5833 34.5889 45.3745 34.7089 45.1693 34.7089ZM28.7264 68.1416C28.36 68.3743 27.9717 68.4907 27.5613 68.4907C26.9605 68.4907 26.4219 68.2798 25.9456 67.8579C25.4693 67.4359 25.2092 66.9195 25.1652 66.3084C25.1506 66.1339 25.1433 65.8792 25.1433 65.5446C25.1433 63.6679 25.6562 61.9293 26.682 60.329C26.7406 60.2417 26.9605 59.878 27.3415 59.2378C27.4441 59.0778 27.5577 58.8923 27.6822 58.6813C27.8068 58.4704 27.957 58.234 28.1329 57.9721C28.9389 56.7937 29.6094 55.8626 30.1443 55.1788C30.6792 54.495 31.3057 53.8694 32.0238 53.302C32.4488 52.9674 33.0569 52.4073 33.8483 51.6217C34.3905 51.0834 34.8082 50.6833 35.1013 50.4214C36.1711 49.4612 37.2703 48.5446 38.3987 47.6717C38.9702 47.2353 39.4319 46.7697 39.7836 46.2751C40.1353 45.7804 40.3844 45.1985 40.531 44.5292C40.7508 43.4526 41.2271 42.1069 41.9598 40.492L42.6413 38.9208C42.8318 38.5134 42.993 38.1388 43.1249 37.7969C43.2568 37.455 43.3447 37.1458 43.3887 36.8694C43.4473 36.433 43.6378 36.2147 43.9602 36.2147C44.0042 36.2147 44.1178 36.2147 44.301 36.2147C44.4842 36.2147 44.6417 36.2438 44.7736 36.302C44.9055 36.3602 45.0008 36.4548 45.0594 36.5857C45.1033 36.6876 45.1253 36.7967 45.1253 36.9131C45.1253 37.0149 45.096 37.1968 45.0374 37.4586C45.0081 37.5314 44.9385 37.6223 44.8286 37.7314C44.7186 37.8405 44.649 37.9242 44.6197 37.9824C44.4439 38.2733 44.0408 39.139 43.4107 40.5793C43.1322 41.3067 42.7439 42.4124 42.2456 43.8964C42.2163 44.0128 42.187 44.1401 42.1577 44.2783C42.1284 44.4165 42.0917 44.5802 42.0478 44.7693L43.2788 43.8745C44.1727 43.249 44.9055 42.7034 45.477 42.2378C46.6641 41.2776 47.7449 40.4374 48.7195 39.7173C49.694 38.9971 50.6796 38.3315 51.6761 37.7205C51.9545 37.5314 52.211 37.4368 52.4455 37.4368C52.5481 37.4368 52.6287 37.4441 52.6873 37.4586C52.7752 37.6041 52.7532 37.7496 52.6213 37.8951C52.4894 38.0406 52.2989 38.2006 52.0498 38.3752L46.0925 43.0671C45.3451 43.6636 44.6344 44.2601 43.9602 44.8566L43.2348 45.4894C42.8978 45.795 42.6706 45.9768 42.5534 46.035C42.1284 46.2387 41.7803 46.5078 41.5092 46.8425C41.2381 47.1771 41.0256 47.5117 40.8717 47.8463C40.7178 48.1809 40.5237 48.6683 40.2892 49.3084C39.9814 50.1668 39.4612 51.4398 38.7284 53.1274L38.4646 53.7166C37.7612 55.2588 37.1164 56.6045 36.5302 57.7539C36.0173 58.7141 35.431 59.7398 34.7716 60.8309C34.5957 61.1219 34.4565 61.3401 34.3539 61.4856C33.6358 62.7077 32.9837 63.7188 32.3975 64.519C31.8259 65.3046 31.2434 65.9956 30.6499 66.5921C30.0563 67.1886 29.4152 67.7051 28.7264 68.1416ZM28.0889 67.0504C28.5579 66.7158 28.9572 66.403 29.2869 66.112C29.6167 65.8211 29.9061 65.5155 30.1553 65.1955C30.9613 64.1189 32.0384 62.5404 33.3867 60.4599C33.5772 60.1689 33.8996 59.6015 34.3539 58.7577C34.4272 58.5977 34.5518 58.3576 34.7276 58.0376C34.8009 57.9066 34.9035 57.7357 35.0354 57.5247C35.1673 57.3138 35.2698 57.1283 35.3431 56.9683C35.519 56.5754 35.6802 56.2117 35.8267 55.8771C35.9733 55.5425 36.1125 55.237 36.2444 54.9606C36.347 54.7132 36.6474 54.044 37.1457 52.9529L38.1349 50.7706L38.8163 49.2648L38.7064 49.1775C38.4426 49.3521 38.3108 49.4394 38.3108 49.4394C38.2814 49.4685 37.8345 49.8686 36.9698 50.6396C35.7535 51.7017 34.7936 52.5964 34.0901 53.3238L33.7824 53.6512C32.8298 54.6259 32.0311 55.477 31.3863 56.2045C30.7415 56.9319 30.1553 57.6884 29.6277 58.474L29.0561 59.3033C28.4553 60.1762 27.99 60.8927 27.6602 61.4529C27.3305 62.013 27.0557 62.6131 26.8359 63.2532C26.6747 63.7915 26.5575 64.2207 26.4842 64.5408C26.4109 64.8609 26.3743 65.1955 26.3743 65.5446C26.3743 65.8211 26.3889 66.0247 26.4182 66.1557C26.4769 66.4757 26.6051 66.7376 26.8029 66.9413C27.0008 67.145 27.2316 67.2468 27.4954 67.2468C27.6859 67.2468 27.8837 67.1814 28.0889 67.0504ZM55.501 34.6217C55.4131 34.5635 55.2849 34.4871 55.1164 34.3925C54.9478 34.298 54.8159 34.1961 54.7207 34.087C54.6254 33.9779 54.5778 33.8579 54.5778 33.7269C54.5778 33.5669 54.6474 33.4032 54.7866 33.2359C54.9258 33.0686 55.098 32.9558 55.3032 32.8977C55.567 32.8104 55.7868 32.7667 55.9627 32.7667C56.0506 32.7667 56.1532 32.7813 56.2704 32.8104C56.4316 32.8686 56.5855 32.9886 56.7321 33.1704C56.8786 33.3523 56.9519 33.516 56.9519 33.6614C56.9519 33.7924 56.9079 33.9088 56.82 34.0106C56.7321 34.1125 56.6148 34.1925 56.4683 34.2507L55.501 34.6217ZM49.5218 46.2751C49.2873 46.2751 49.0968 46.2023 48.9503 46.0568C48.8037 45.9113 48.7231 45.7077 48.7085 45.4458C48.6352 44.3692 48.9136 43.1762 49.5438 41.8668C50.5843 39.8155 51.8373 37.9242 53.3028 36.1929C53.42 36.0474 53.5812 35.8947 53.7864 35.7346C53.9916 35.5891 54.1528 35.5164 54.27 35.5164C54.3726 35.5164 54.4679 35.5673 54.5558 35.6692C54.6584 35.7855 54.739 35.9274 54.7976 36.0947C54.8562 36.262 54.8709 36.3966 54.8416 36.4984C54.739 36.7603 54.4899 37.1167 54.0942 37.5677C54.0502 37.6259 53.9696 37.6987 53.8524 37.786C53.7351 37.8733 53.6545 37.9533 53.6106 38.026L52.8632 39.3136C52.189 40.4484 51.7714 41.1321 51.6101 41.3649C50.98 42.296 50.5184 43.329 50.2253 44.4638C50.2692 44.5365 50.3535 44.6674 50.4781 44.8566C50.6026 45.0457 50.6649 45.2203 50.6649 45.3803C50.6649 45.6276 50.5513 45.8386 50.3242 46.0132C50.097 46.1878 49.8296 46.2751 49.5218 46.2751ZM83.2649 61.3983C82.1218 61.5438 81.1949 61.6493 80.4841 61.7147C79.7734 61.7802 79.0809 61.8129 78.4068 61.8129C76.9852 61.8129 75.9081 61.6311 75.1753 61.2674C74.7064 61.0637 74.3437 60.7763 74.0872 60.4054C73.8308 60.0344 73.7025 59.6379 73.7025 59.216C73.7025 58.5759 73.9736 58.0085 74.5159 57.5138C74.4573 57.8048 74.428 58.0958 74.428 58.3867C74.428 59.3178 74.7614 59.9725 75.4282 60.3508C76.095 60.7291 77.0219 60.9182 78.2089 60.9182C79.0296 60.9182 80.3339 60.8018 82.1218 60.569C90.7976 59.4051 99.3341 56.7718 107.731 52.6692C113.183 50.0068 117.983 46.7843 122.13 43.0016C123.771 41.4595 125.185 39.8919 126.373 38.2988C127.56 36.7057 128.512 34.9854 129.23 33.1377C129.758 31.7701 130.022 30.4171 130.022 29.0786C130.022 26.329 128.871 23.7102 126.57 21.2224C125.457 20.0294 124.189 18.9819 122.767 18.0799C121.346 17.1779 119.748 16.3414 117.975 15.5703C113.696 13.6935 109.043 12.5951 104.016 12.2751C102.653 12.2023 101.415 12.1659 100.301 12.1659C97.3264 12.1659 94.6005 12.406 92.1238 12.8861L89.4859 13.4098C88.5773 13.5844 87.6431 13.7736 86.6832 13.9772C85.7233 14.1809 84.8403 14.3919 84.0343 14.6101C80.9567 15.4248 78.1137 16.476 75.5051 17.7635C72.8965 19.0511 70.5297 20.6623 68.4048 22.5973C67.4815 23.4556 66.6828 24.3867 66.0087 25.3906C65.4664 26.1908 65.1953 26.9909 65.1953 27.7911C65.1953 28.4894 65.3968 29.1405 65.7998 29.7442C66.2028 30.348 66.7781 30.8754 67.5255 31.3264C68.566 31.9374 69.6284 32.4357 70.7129 32.8213C71.7974 33.2068 73.2409 33.6687 75.0435 34.207L76.2525 34.5562C78.949 35.3564 81.1143 36.0292 82.7483 36.5748C84.3823 37.1204 86.0054 37.7714 87.6174 38.5279C87.9398 38.6734 88.526 39.0008 89.376 39.51C89.6252 39.6846 90.0062 39.9173 90.5191 40.2083C93.201 35.3782 95.2527 31.7338 96.6742 29.2751C98.0371 26.8309 99.5246 24.3213 101.137 21.7462C101.327 21.4261 101.492 21.2042 101.631 21.0806C101.77 20.9569 101.943 20.8951 102.148 20.8951C102.28 20.8951 102.47 20.9278 102.719 20.9933C102.969 21.0588 103.24 21.1351 103.533 21.2224C103.445 21.4116 103.35 21.6407 103.247 21.9098C103.144 22.179 103.064 22.379 103.005 22.51C102.829 23.0192 102.657 23.452 102.489 23.8084C102.32 24.1649 102.119 24.4813 101.884 24.7577C101.43 25.296 101.038 25.8489 100.708 26.4163C100.378 26.9837 99.9642 27.7547 99.466 28.7295C99.2462 29.2096 98.9677 29.7552 98.6306 30.3662C98.2203 31.1227 97.5608 32.4539 96.6522 34.3598L95.641 36.4548C95.6117 36.513 95.5348 36.6803 95.4102 36.9567C95.2856 37.2331 95.1281 37.4441 94.9376 37.5896C94.7471 37.735 94.5199 37.8223 94.2561 37.8514C94.1242 37.8805 93.9997 37.946 93.8824 38.0478C93.7652 38.1497 93.6589 38.2588 93.5637 38.3752C93.4684 38.4916 93.4062 38.5643 93.3768 38.5934C93.2742 38.768 93.1497 39.0153 93.0031 39.3354C92.8419 39.6991 92.732 39.9246 92.6734 40.0119C92.2044 40.6957 91.97 41.4231 91.97 42.1942C91.97 42.6743 92.0579 43.1544 92.2337 43.6345C92.395 44.0273 92.4756 44.4419 92.4756 44.8784C92.4756 45.3876 92.351 45.9768 92.1019 46.646C91.5743 47.9845 90.9697 49.192 90.2883 50.2686C89.6068 51.3452 88.7752 52.3054 87.7933 53.1493C87.5295 53.4257 87.1338 53.6948 86.6062 53.9567L86.2106 54.1968C85.9614 54.3422 85.7269 54.4732 85.5071 54.5896C85.2873 54.706 85.0894 54.8078 84.9136 54.8951C84.3274 55.1861 83.8877 55.4116 83.5946 55.5716C83.536 55.5134 83.4627 55.4407 83.3748 55.3534C83.2869 55.2661 83.2502 55.2079 83.2649 55.1788C83.2942 55.0042 83.4481 53.9858 83.7265 52.1236C83.7705 51.8617 83.8364 51.4762 83.9244 50.967C84.0123 50.4578 84.0783 50.0068 84.1222 49.614C84.2541 48.4501 84.8623 47.6863 85.9468 47.3226C86.8261 47.017 87.4855 46.3914 87.9252 45.4458C88.0864 45.1257 88.4161 44.4274 88.9144 43.3508L89.5959 41.8887C89.2002 41.3504 88.7349 40.9139 88.2 40.5793C87.6651 40.2447 86.9506 39.881 86.0567 39.4882L85.4412 39.2263C84.0929 38.6298 82.73 38.1097 81.3524 37.6659C79.9749 37.2222 78.2236 36.6876 76.0986 36.062L72.4715 34.9708C70.8302 34.4762 69.4709 33.9924 68.3938 33.5196C67.3166 33.0468 66.3237 32.3957 65.4151 31.5665C64.8583 31.0718 64.4186 30.4862 64.0962 29.8097C63.7738 29.1332 63.6126 28.4531 63.6126 27.7693C63.6126 27.1437 63.7371 26.5763 63.9863 26.0671C64.5285 24.9323 65.2026 23.8957 66.0087 22.9573C66.8147 22.019 67.7746 21.1206 68.8884 20.2622C69.5625 19.7385 70.2513 19.2547 70.9547 18.811C71.6582 18.3673 72.5741 17.8108 73.7025 17.1416L74.2081 16.836C75.1167 16.2977 76.0547 15.8395 77.0219 15.4612C77.9891 15.0829 79.2568 14.6319 80.8249 14.1082L82.3416 13.5844C86.0933 12.3187 90.1674 11.4822 94.5639 11.0748C96.9527 10.8566 99.1143 10.7475 101.049 10.7475C105.372 10.7475 109.314 11.2567 112.875 12.2751C115.821 13.1334 118.47 14.1591 120.822 15.3521C123.174 16.5451 125.273 18.0654 127.12 19.9131C129.904 22.7209 131.297 25.7543 131.297 29.0132C131.297 30.919 130.813 32.8977 129.846 34.949C129.157 36.4621 128.296 37.8878 127.263 39.2263C126.23 40.5647 125.039 41.8741 123.691 43.1544C119.778 46.8934 115.389 50.0068 110.523 52.4946C108.149 53.673 106.123 54.6441 104.445 55.4079C102.767 56.1717 101.071 56.8664 99.3561 57.492C94.7837 59.1942 89.6765 60.4672 84.0343 61.311L83.2649 61.3983ZM86.2545 51.9708C87.0605 51.4907 87.7933 50.8469 88.4528 50.0395C89.1122 49.2321 89.6288 48.3591 90.0025 47.4208C90.3762 46.4824 90.5631 45.5913 90.5631 44.7475C90.5631 44.4274 90.5484 44.1946 90.5191 44.0491C89.5079 45.8968 88.0864 48.5374 86.2545 51.9708ZM74.5379 57.4047L74.5598 57.4702L74.5159 57.5138L74.5379 57.4047ZM136.792 44.311C136.646 44.3256 136.426 44.3328 136.133 44.3328C134.638 44.3328 133.37 43.9036 132.33 43.0453C131.89 42.6816 131.557 42.2487 131.33 41.7468C131.102 41.2449 130.989 40.7102 130.989 40.1428C130.989 39.6191 131.091 39.0881 131.297 38.5498C131.678 37.5605 132.322 36.4766 133.231 35.2982C133.568 34.8763 133.931 34.5016 134.319 34.1743C134.708 33.8469 135.209 33.4578 135.825 33.0068L136.309 32.6358C136.543 32.4612 136.833 32.3303 137.177 32.243C137.521 32.1557 137.869 32.112 138.221 32.112C138.793 32.112 139.265 32.3121 139.639 32.7122C140.013 33.1122 140.199 33.596 140.199 34.1634C140.199 34.9344 139.958 35.5819 139.474 36.1056C138.243 37.4732 136.748 38.6953 134.99 39.7718C134.623 39.9901 134.088 40.2083 133.385 40.4265L132.484 40.7321C132.762 41.2558 133.044 41.6741 133.33 41.9869C133.616 42.2997 133.971 42.5215 134.396 42.6525C134.499 42.6816 134.704 42.7434 135.012 42.838C135.319 42.9325 135.602 43.0053 135.858 43.0562C136.114 43.1071 136.353 43.1326 136.572 43.1326C137.144 43.1326 137.679 42.958 138.177 42.6088C138.236 42.6234 138.331 42.6306 138.463 42.6306C138.712 42.6306 138.961 42.5906 139.21 42.5106C139.459 42.4306 139.745 42.3106 140.068 42.1505C140.551 41.9178 140.954 41.765 141.277 41.6923C141.526 41.6486 141.782 41.5468 142.046 41.3867C142.31 41.2267 142.478 41.1249 142.552 41.0812L143.123 40.7321C144.032 40.1938 145.014 39.59 146.069 38.9208C146.215 38.8335 146.366 38.7098 146.519 38.5498C146.673 38.3897 146.78 38.2806 146.838 38.2224C147.161 37.9315 147.622 37.5023 148.223 36.9349C148.326 37.1386 148.377 37.3204 148.377 37.4804C148.377 37.7569 148.223 38.0333 147.915 38.3097C146.904 39.2845 146.12 39.9901 145.563 40.4265C144.918 40.9357 143.907 41.6559 142.53 42.587C141.504 43.2417 140.28 43.7 138.859 43.9618L138.133 44.0928C137.62 44.2237 137.173 44.2965 136.792 44.311ZM132.703 39.2045C132.821 39.1899 132.927 39.179 133.022 39.1717C133.117 39.1644 133.18 39.1535 133.209 39.139L133.737 38.8116C133.883 38.7243 134.341 38.4479 135.111 37.9824C135.88 37.5168 136.587 37.0513 137.232 36.5857C137.554 36.3675 137.906 35.9747 138.287 35.4073L138.573 35.0363C138.749 34.789 138.837 34.5635 138.837 34.3598C138.837 34.1707 138.771 33.9888 138.639 33.8142C138.551 33.7124 138.437 33.6287 138.298 33.5632C138.159 33.4978 138.009 33.465 137.847 33.465C137.613 33.465 137.415 33.516 137.254 33.6178C136.917 33.836 136.558 34.0979 136.177 34.4034L135.561 34.8617C135.048 35.2109 134.609 35.6291 134.242 36.1165C133.876 36.6039 133.509 37.1895 133.143 37.8733C133.07 38.0042 132.975 38.2733 132.857 38.6807L132.703 39.2045ZM153.345 48.9811C153.213 48.8792 153.122 48.701 153.07 48.4464C153.019 48.1918 152.993 47.9263 152.993 47.6499C153.023 47.2134 153.162 46.7915 153.411 46.3842C155.375 42.8343 157.316 39.3936 159.236 36.062C160.101 34.5635 161.251 32.6576 162.688 30.3444L164.094 28.0093C164.109 27.9511 164.113 27.8893 164.105 27.8238C164.098 27.7584 164.094 27.6893 164.094 27.6165C164.007 27.6165 163.464 27.682 162.468 27.8129C162.263 27.842 161.915 27.8857 161.424 27.9439C160.933 28.0021 160.497 28.0384 160.116 28.053C159.91 28.0675 159.61 28.0748 159.214 28.0748C158.291 28.0748 157.492 28.0093 156.818 27.8784C156.525 27.8202 156.291 27.6929 156.115 27.4965C155.939 27.3001 155.851 27.0637 155.851 26.7873C155.851 26.3799 156.034 26.0162 156.401 25.6961C156.635 25.4924 156.932 25.2997 157.291 25.1178C157.65 24.9359 157.991 24.765 158.313 24.605C159.456 24.1103 160.519 23.863 161.501 23.863C162.248 23.863 162.981 24.0085 163.699 24.2994C164.021 24.4449 164.49 24.7214 165.106 25.1287L165.589 25.4561C165.619 25.4415 165.677 25.4088 165.765 25.3579C165.853 25.3069 165.897 25.2597 165.897 25.216C166.014 24.4158 166.241 23.6339 166.578 22.8701C166.916 22.1063 167.341 21.317 167.853 20.5023L170.096 16.9233L171.305 14.9593C171.451 14.7556 171.525 14.5374 171.525 14.3046C171.525 14.1736 171.488 13.9845 171.415 13.7372C171.341 13.4753 171.305 13.2062 171.305 12.9297C171.305 12.6242 171.363 12.3333 171.481 12.0568C172.081 10.6456 172.653 9.55447 173.195 8.7834C174.558 6.92118 176.419 4.98623 178.779 2.97853C179.775 2.13471 180.625 1.4582 181.329 0.948997C181.695 0.643482 181.995 0.490723 182.23 0.490723C182.435 0.490723 182.633 0.578011 182.824 0.75259C183.014 0.941723 183.109 1.1454 183.109 1.36363C183.109 1.61096 182.977 1.9383 182.714 2.34566L181.68 3.87326L180.625 5.42268C178.779 8.08507 177.255 10.2892 176.053 12.035L175.262 13.1916C173.356 15.9849 171.935 18.1018 170.997 19.5421C170.66 20.0658 169.971 21.1933 168.931 22.9246C168.256 24.0739 167.766 24.8959 167.458 25.3906L168.623 25.1287C169.502 24.9396 170.059 24.8086 170.293 24.7359C174.045 23.7612 178.141 22.219 182.582 20.1095C183.27 19.7894 183.926 19.4366 184.549 19.0511C185.172 18.6655 186.018 18.1236 187.088 17.4252C187.733 16.9888 188.224 16.6687 188.561 16.465C189.44 15.8831 190.195 15.3084 190.825 14.741C191.558 14.0427 192.474 13.0825 193.573 11.8604C193.676 11.7586 193.756 11.6349 193.815 11.4894C193.873 11.3439 193.91 11.1985 193.925 11.053C193.954 10.8493 193.969 10.682 193.969 10.551C193.969 10.2601 193.917 10.0709 193.815 9.98366C193.668 9.88182 193.456 9.8309 193.177 9.8309C192.972 9.8309 192.774 9.86727 192.584 9.94001C190.825 10.5947 189.462 11.6276 188.495 13.0389C188.334 13.2716 188.099 13.5408 187.792 13.8463L187.418 14.2391C186.964 13.9481 186.736 13.6426 186.736 13.3226C186.736 13.1043 186.824 12.8861 187 12.6679C188.715 10.4419 190.686 9.02345 192.913 8.41241C193.177 8.35422 193.382 8.32512 193.529 8.32512C194.1 8.32512 194.595 8.51061 195.013 8.8816C195.43 9.25259 195.639 9.73633 195.639 10.3328C195.639 10.5801 195.581 10.8784 195.463 11.2276C195.214 11.9404 194.859 12.5733 194.397 13.1261C193.936 13.679 193.302 14.3337 192.496 15.0902C191.191 16.3414 189.755 17.4689 188.187 18.4727C186.619 19.4766 184.839 20.4732 182.845 21.4625C179.05 23.3101 174.719 24.9105 169.854 26.2635L168.513 26.5908L166.93 27.0055C166.901 27.0928 166.872 27.1837 166.842 27.2783C166.813 27.3728 166.806 27.4347 166.82 27.4638C167.436 29.4424 167.982 31.0645 168.458 32.3303C168.934 33.596 169.553 34.869 170.315 36.1493C171.078 37.4295 172.008 38.5861 173.107 39.6191C174.91 41.3213 176.954 42.3906 179.24 42.827C180.589 43.0744 182.017 43.198 183.527 43.198C184.963 43.198 186.465 43.0962 188.033 42.8925C192.957 42.2669 197.515 41.1685 201.706 39.5973C201.912 39.5245 202.586 39.2481 203.729 38.768C204.828 38.3024 205.678 37.9606 206.279 37.7423C206.88 37.5241 207.349 37.415 207.686 37.415C208.037 37.415 208.191 37.5677 208.147 37.8733C207.693 38.0769 207.275 38.2661 206.894 38.4407C206.513 38.6152 206.169 38.7753 205.861 38.9208C204.161 39.7209 202.747 40.3502 201.618 40.8084C200.49 41.2667 199.252 41.6777 197.903 42.0414C195.06 42.8125 192.448 43.409 190.067 43.8309C187.685 44.2528 185.315 44.4638 182.955 44.4638C179.936 44.4638 177.299 43.86 175.042 42.6525C173.547 41.8377 172.221 40.7321 171.063 39.3354C169.011 36.9494 167.509 34.0688 166.556 30.6935C166.483 30.4317 166.3 29.9588 166.007 29.2751L165.721 28.6204C165.15 29.0859 163.999 30.7045 162.27 33.476C160.541 36.2475 158.888 39.0699 157.313 41.9432C155.737 44.8166 154.876 46.6169 154.73 47.3444C155.536 46.8497 156.51 46.0859 157.654 45.053C158.445 44.3546 159.119 43.7945 159.676 43.3726C160.233 42.9507 160.834 42.5943 161.479 42.3033C161.728 42.4779 161.852 42.6597 161.852 42.8489C161.852 43.0235 161.75 43.198 161.544 43.3726L155.455 48.4573C155.148 48.7338 154.898 48.8938 154.708 48.9374C154.327 49.0247 154.012 49.0684 153.763 49.0684C153.587 49.0684 153.448 49.0393 153.345 48.9811ZM176.734 7.29945L177.042 6.95028C176.734 7.09576 176.533 7.20124 176.438 7.26671C176.342 7.33218 176.276 7.40856 176.24 7.49585C176.203 7.58315 176.17 7.74318 176.141 7.97596L176.734 7.29945ZM172.843 12.4496C173.562 11.7659 174.173 11.0239 174.679 10.2237C175.185 9.42354 175.452 8.79067 175.481 8.32512C174.851 8.80522 174.338 9.38353 173.943 10.06C173.547 10.7365 173.181 11.5331 172.843 12.4496ZM157.588 26.7C157.895 26.7291 158.335 26.7436 158.907 26.7436C160.548 26.7436 162.145 26.4817 163.699 25.958C162.966 25.4488 162.182 25.1942 161.347 25.1942C160.555 25.1942 159.654 25.427 158.643 25.8925C158.511 25.9507 158.335 26.0816 158.115 26.2853C158.042 26.329 157.965 26.3872 157.884 26.4599C157.804 26.5327 157.705 26.6127 157.588 26.7ZM215.16 43.9182C214.647 43.9182 214.17 43.7873 213.731 43.5254C213.291 43.2635 212.947 42.9034 212.698 42.4451C212.449 41.9869 212.324 41.4886 212.324 40.9503V40.8193C212.324 40.7321 212.309 40.5284 212.28 40.2083C211.474 40.7175 210.902 41.0885 210.565 41.3213L209.928 41.7795C209.224 42.3033 208.682 42.667 208.301 42.8707C207.949 43.0598 207.393 43.2126 206.63 43.329C206.367 43.3726 206.11 43.2853 205.861 43.0671C205.612 42.8489 205.487 42.5943 205.487 42.3033C205.487 41.4595 205.583 40.7975 205.773 40.3174C206.345 38.9644 207.158 37.8514 208.213 36.9785C208.316 36.8912 208.554 36.6876 208.928 36.3675C209.301 36.0474 209.671 35.7746 210.038 35.5491C210.404 35.3236 210.763 35.1527 211.115 35.0363C211.408 34.9344 211.694 34.8835 211.972 34.8835C212.397 34.8835 212.767 34.9963 213.082 35.2218C213.397 35.4473 213.65 35.7855 213.841 36.2365C213.855 36.2656 213.892 36.3675 213.951 36.5421C214.009 36.7166 214.09 36.8403 214.192 36.9131C214.456 37.0876 214.588 37.2986 214.588 37.5459C214.588 37.7205 214.53 37.9242 214.412 38.157C214.105 38.7534 213.87 39.3427 213.709 39.9246C213.621 40.201 213.577 40.492 213.577 40.7975C213.577 41.4377 213.804 41.9323 214.258 42.2815C214.552 42.5143 214.984 42.6306 215.555 42.6306C216.259 42.6306 217.072 42.3688 217.995 41.845C219.021 41.2776 220.406 40.4193 222.15 39.2699C222.912 38.7462 223.696 38.1424 224.502 37.4586C224.649 37.3422 224.832 37.1895 225.052 37.0003C225.125 37.1749 225.162 37.3204 225.162 37.4368C225.162 37.6696 225.03 37.9169 224.766 38.1788C224.488 38.4552 224.348 38.5934 224.348 38.5934C223.909 39.059 223.564 39.3863 223.315 39.5754L222.414 40.2519C220.802 41.474 219.571 42.3542 218.721 42.8925C217.622 43.5617 216.435 43.9036 215.16 43.9182ZM206.85 42.0632C207.905 41.5977 208.898 41.0194 209.829 40.3283C210.76 39.6373 211.76 38.8116 212.83 37.8514C212.83 37.5023 212.815 37.2331 212.786 37.044C212.756 36.8112 212.643 36.6148 212.445 36.4548C212.247 36.2947 212.031 36.2147 211.796 36.2147C211.752 36.2147 211.672 36.2293 211.555 36.2584C211.261 36.3602 210.954 36.5202 210.631 36.7385C209.855 37.3059 209.184 37.8733 208.62 38.4407C208.056 39.008 207.598 39.6409 207.246 40.3392C207.202 40.4411 207.136 40.5684 207.048 40.7211C206.96 40.8739 206.891 41.0194 206.839 41.1576C206.788 41.2958 206.762 41.4377 206.762 41.5831C206.762 41.7432 206.792 41.9032 206.85 42.0632ZM229.558 44.311C229.412 44.3256 229.192 44.3328 228.899 44.3328C227.404 44.3328 226.136 43.9036 225.096 43.0453C224.656 42.6816 224.323 42.2487 224.096 41.7468C223.868 41.2449 223.755 40.7102 223.755 40.1428C223.755 39.6191 223.857 39.0881 224.063 38.5498C224.444 37.5605 225.088 36.4766 225.997 35.2982C226.334 34.8763 226.697 34.5016 227.085 34.1743C227.474 33.8469 227.975 33.4578 228.591 33.0068L229.075 32.6358C229.309 32.4612 229.599 32.3303 229.943 32.243C230.287 32.1557 230.635 32.112 230.987 32.112C231.559 32.112 232.031 32.3121 232.405 32.7122C232.779 33.1122 232.965 33.596 232.965 34.1634C232.965 34.9344 232.724 35.5819 232.24 36.1056C231.009 37.4732 229.514 38.6953 227.756 39.7718C227.389 39.9901 226.854 40.2083 226.151 40.4265L225.25 40.7321C225.528 41.2558 225.81 41.6741 226.096 41.9869C226.382 42.2997 226.737 42.5215 227.162 42.6525C227.265 42.6816 227.47 42.7434 227.778 42.838C228.085 42.9325 228.367 43.0053 228.624 43.0562C228.88 43.1071 229.119 43.1326 229.338 43.1326C229.91 43.1326 230.445 42.958 230.943 42.6088C231.002 42.6234 231.097 42.6306 231.229 42.6306C231.478 42.6306 231.727 42.5906 231.976 42.5106C232.225 42.4306 232.511 42.3106 232.834 42.1505C233.317 41.9178 233.72 41.765 234.043 41.6923C234.292 41.6486 234.548 41.5468 234.812 41.3867C235.076 41.2267 235.244 41.1249 235.318 41.0812L235.889 40.7321C236.798 40.1938 237.78 39.59 238.835 38.9208C238.981 38.8335 239.132 38.7098 239.285 38.5498C239.439 38.3897 239.546 38.2806 239.604 38.2224C239.927 37.9315 240.388 37.5023 240.989 36.9349C241.092 37.1386 241.143 37.3204 241.143 37.4804C241.143 37.7569 240.989 38.0333 240.681 38.3097C239.67 39.2845 238.886 39.9901 238.329 40.4265C237.684 40.9357 236.673 41.6559 235.296 42.587C234.27 43.2417 233.046 43.7 231.625 43.9618L230.899 44.0928C230.386 44.2237 229.939 44.2965 229.558 44.311ZM225.469 39.2045C225.587 39.1899 225.693 39.179 225.788 39.1717C225.883 39.1644 225.946 39.1535 225.975 39.139L226.503 38.8116C226.649 38.7243 227.107 38.4479 227.877 37.9824C228.646 37.5168 229.353 37.0513 229.998 36.5857C230.32 36.3675 230.672 35.9747 231.053 35.4073L231.339 35.0363C231.515 34.789 231.603 34.5635 231.603 34.3598C231.603 34.1707 231.537 33.9888 231.405 33.8142C231.317 33.7124 231.203 33.6287 231.064 33.5632C230.925 33.4978 230.775 33.465 230.613 33.465C230.379 33.465 230.181 33.516 230.02 33.6178C229.683 33.836 229.324 34.0979 228.943 34.4034L228.327 34.8617C227.814 35.2109 227.375 35.6291 227.008 36.1165C226.642 36.6039 226.275 37.1895 225.909 37.8733C225.836 38.0042 225.741 38.2733 225.623 38.6807L225.469 39.2045ZM237.142 48.5883C236.893 48.5883 236.706 48.5155 236.582 48.3701C236.457 48.2246 236.395 48.0427 236.395 47.8245V47.7154C236.395 47.6135 236.424 47.4608 236.483 47.2571L236.79 46.646C236.922 46.3696 237.069 46.0787 237.23 45.7731C237.391 45.4676 237.553 45.1403 237.714 44.7911L239.406 41.3649C239.509 41.1467 239.608 40.9576 239.703 40.7975C239.798 40.6375 239.875 40.4993 239.934 40.3829C240.183 39.9464 240.33 39.6918 240.374 39.6191L240.703 38.9208L241.121 38.0915L241.011 37.8951C240.703 37.6332 240.476 37.4041 240.33 37.2077C240.183 37.0113 240.11 36.8185 240.11 36.6294C240.11 36.4693 240.154 36.3057 240.242 36.1383C240.33 35.971 240.476 35.7637 240.681 35.5164C241.048 35.0799 241.627 34.5707 242.418 33.9888C242.433 33.9742 242.55 33.8797 242.77 33.7051C242.916 33.6033 243.217 33.5669 243.671 33.596C243.876 33.6251 244.034 33.7051 244.144 33.836C244.254 33.967 244.286 34.1343 244.243 34.338C244.067 35.0945 243.883 35.7346 243.693 36.2584C243.649 36.3748 243.583 36.5384 243.495 36.7494C243.407 36.9603 243.356 37.1677 243.341 37.3713C243.693 37.0949 243.883 36.9494 243.913 36.9349L245.166 35.9529C245.224 35.9092 245.338 35.8219 245.507 35.691C245.675 35.56 245.833 35.4873 245.979 35.4727C246.126 35.4582 246.272 35.4436 246.419 35.4291C246.565 35.4146 246.712 35.4073 246.858 35.4073C247.225 35.4073 247.485 35.5018 247.639 35.691C247.793 35.8801 247.877 36.2511 247.892 36.8039C247.921 37.2986 247.965 37.7714 248.023 38.2224C248.067 38.4697 248.155 38.6334 248.287 38.7134C248.419 38.7935 248.624 38.8335 248.903 38.8335C249.709 38.8189 250.475 38.6698 251.2 38.3861C251.925 38.1024 252.706 37.6987 253.541 37.1749C253.732 37.044 253.885 36.9785 254.003 36.9785C254.135 36.9785 254.259 37.0731 254.376 37.2622C254.186 37.5386 253.955 37.7787 253.684 37.9824C253.413 38.1861 253.057 38.4116 252.618 38.6589C251.445 39.299 250.39 39.7646 249.452 40.0555C249.218 40.1428 248.939 40.1865 248.617 40.1865C248.221 40.1865 247.855 40.1137 247.518 39.9683C247.225 39.8519 246.954 39.4154 246.705 38.6589C246.631 38.3825 246.565 37.9678 246.507 37.415L246.441 36.8039C245.899 37.0076 245.43 37.2695 245.034 37.5896C244.638 37.9096 244.286 38.2333 243.979 38.5607C243.671 38.888 243.466 39.1026 243.363 39.2045C242.557 40.0628 241.92 40.8193 241.451 41.474C240.733 42.5652 240.029 43.7363 239.34 44.9875C239.121 45.4094 238.74 46.195 238.197 47.3444L237.978 47.8245L237.736 48.2391C237.575 48.4719 237.377 48.5883 237.142 48.5883ZM242.066 36.5639L241.89 36.4111L241.627 36.8258L241.78 36.9349L242.066 36.5639ZM255.673 44.2892C255.366 44.4056 255.095 44.4638 254.86 44.4638C254.45 44.4638 254.069 44.3546 253.717 44.1364C253.365 43.9182 253.079 43.6454 252.86 43.3181C252.64 42.9907 252.523 42.667 252.508 42.3469C252.493 42.2015 252.486 41.976 252.486 41.6704C252.486 40.4338 252.772 39.1317 253.343 37.7641L253.937 36.302C253.995 36.2002 254.098 36.0474 254.245 35.8437C254.303 35.7564 254.369 35.6692 254.442 35.5819C254.516 35.4946 254.589 35.3855 254.662 35.2545C254.692 35.2109 254.721 35.16 254.75 35.1018C254.779 35.0436 254.809 34.9999 254.838 34.9708C255.029 34.7089 255.263 34.578 255.542 34.578C255.644 34.578 255.717 34.5926 255.761 34.6217C255.952 34.738 256.047 34.9126 256.047 35.1454C256.047 35.3054 256.01 35.4509 255.937 35.5819C255.673 36.2075 255.234 37.1458 254.618 38.397C254.047 39.5463 253.79 40.703 253.849 41.8668C253.864 42.2742 253.97 42.587 254.168 42.8052C254.365 43.0235 254.611 43.1326 254.904 43.1326C255.153 43.1326 255.424 43.0526 255.717 42.8925C257.036 42.1505 258.128 41.3213 258.993 40.4047L260.18 39.1608C261.763 37.5023 262.539 36.6876 262.51 36.7166C262.642 36.5712 262.825 36.3384 263.06 36.0183L263.455 35.4946C263.69 35.16 263.917 34.9926 264.137 34.9926C264.195 34.9926 264.283 35.0217 264.4 35.0799C264.503 35.1381 264.591 35.2436 264.664 35.3964C264.738 35.5491 264.774 35.7128 264.774 35.8874C264.774 36.0038 264.752 36.1056 264.708 36.1929C264.65 36.3529 264.569 36.5202 264.466 36.6948C264.364 36.8694 264.276 37.044 264.203 37.2186C264.115 37.4223 264.056 37.575 264.027 37.6769C263.807 38.2006 263.506 38.9717 263.125 39.9901C263.023 40.3247 262.972 40.5502 262.972 40.6666C262.972 40.8994 263.027 41.0812 263.136 41.2122C263.246 41.3431 263.404 41.4086 263.609 41.4086C263.653 41.4086 263.748 41.394 263.895 41.3649C264.525 41.2049 265.122 40.9503 265.686 40.6011C266.251 40.2519 266.833 39.8228 267.434 39.3136C268.05 38.7753 268.504 38.3497 268.797 38.0369C269.09 37.7241 269.405 37.2913 269.742 36.7385C269.772 36.6948 269.827 36.6475 269.907 36.5966C269.988 36.5457 270.057 36.4984 270.116 36.4548C270.248 36.5857 270.314 36.7312 270.314 36.8912C270.314 36.9931 270.295 37.0949 270.259 37.1968C270.222 37.2986 270.197 37.3713 270.182 37.415C270.123 37.5605 270.035 37.7205 269.918 37.8951C269.801 38.0697 269.72 38.1933 269.676 38.2661C269.178 38.9353 268.768 39.4409 268.445 39.7828C268.123 40.1246 267.676 40.492 267.104 40.8848C266.357 41.4086 265.734 41.8123 265.236 42.096C264.738 42.3797 264.188 42.5724 263.587 42.6743C263.499 42.6888 263.375 42.6961 263.213 42.6961C262.788 42.6961 262.44 42.5797 262.169 42.3469C261.898 42.1142 261.741 41.7868 261.697 41.3649C261.667 41.1321 261.653 40.9503 261.653 40.8193L261.675 39.9901C261.411 40.1065 261.176 40.2701 260.971 40.4811C260.766 40.692 260.641 40.8193 260.597 40.863C259.088 42.376 257.447 43.5181 255.673 44.2892ZM267.874 42.6306C267.625 42.4706 267.5 42.2815 267.5 42.0632C267.5 41.9469 267.522 41.8377 267.566 41.7359C267.654 41.5177 267.866 40.9066 268.203 39.9028C268.687 38.4334 268.987 37.5605 269.105 37.284C269.412 36.5566 269.742 35.8365 270.094 35.1236C270.226 34.8472 270.534 34.2652 271.017 33.3778C271.178 33.0868 271.398 32.9413 271.677 32.9413C271.94 32.9413 272.109 33.0031 272.182 33.1268C272.256 33.2505 272.299 33.4287 272.314 33.6614C272.329 33.7778 272.351 33.9124 272.38 34.0652C272.409 34.2179 272.431 34.3307 272.446 34.4034C272.49 34.578 272.512 34.7235 272.512 34.8399C272.512 34.9854 272.464 35.0981 272.369 35.1781C272.274 35.2582 272.094 35.3491 271.831 35.4509C271.581 35.5528 271.413 35.6946 271.325 35.8765C271.237 36.0583 271.171 36.262 271.127 36.4875C271.083 36.713 271.047 36.884 271.017 37.0003L271.391 36.7385C271.992 36.302 272.431 35.9965 272.71 35.8219C273.384 35.3855 273.985 35.0363 274.512 34.7744C274.747 34.658 275.025 34.5998 275.348 34.5998C275.685 34.5998 276.004 34.6798 276.304 34.8399C276.604 34.9999 276.857 35.2254 277.062 35.5164C277.268 35.8074 277.425 36.0838 277.535 36.3457C277.645 36.6075 277.7 36.8912 277.7 37.1968C277.7 37.3131 277.733 37.455 277.799 37.6223C277.865 37.7896 277.912 37.9242 277.942 38.026L280.096 36.3238C281.005 35.6401 281.796 35.1199 282.47 34.7635C283.144 34.4071 283.892 34.207 284.712 34.1634C284.991 34.1488 285.225 34.1961 285.416 34.3052C285.606 34.4143 285.804 34.5853 286.009 34.8181C286.317 35.1527 286.522 35.52 286.625 35.9201C286.727 36.3202 286.779 36.7748 286.779 37.284L286.757 38.3752C286.757 38.6662 286.786 38.9462 286.845 39.2154C286.903 39.4845 286.998 39.8155 287.13 40.2083C287.248 40.6011 287.519 40.7612 287.944 40.6884C288.457 40.6157 288.772 40.5647 288.889 40.5356L290.67 39.9901L292.208 39.51C292.868 39.2917 293.564 38.848 294.297 38.1788C294.37 38.106 294.491 37.9896 294.659 37.8296C294.828 37.6696 294.996 37.5386 295.165 37.4368C295.333 37.335 295.506 37.2549 295.682 37.1968C295.799 37.3568 295.857 37.5095 295.857 37.655C295.857 37.8296 295.74 38.0187 295.506 38.2224C295.447 38.2806 295.22 38.477 294.824 38.8116C294.429 39.1463 294.026 39.4445 293.615 39.7064C292.12 40.7248 290.457 41.4449 288.625 41.8668C288.391 41.925 288.134 41.9541 287.856 41.9541C287.182 41.9541 286.628 41.7359 286.196 41.2994C285.764 40.863 285.511 40.2665 285.438 39.51C285.394 39.0008 285.372 38.5061 285.372 38.026L285.328 37.0222C285.269 36.0183 284.925 35.5164 284.295 35.5164C283.958 35.5164 283.584 35.6401 283.173 35.8874L282.47 36.302C282.001 36.5639 281.657 36.7676 281.437 36.9131C281.217 37.0731 280.909 37.335 280.514 37.6987L280.052 38.0915L279.678 38.4188C279.18 38.8553 278.792 39.1754 278.513 39.379C278.205 39.5973 277.912 39.7064 277.634 39.7064C277.355 39.7064 277.117 39.6082 276.919 39.4118C276.722 39.2154 276.593 38.9426 276.535 38.5934C276.476 38.317 276.418 37.9024 276.359 37.3495C276.359 37.2622 276.352 37.204 276.337 37.1749C276.205 36.5057 275.868 36.1711 275.326 36.1711C275.165 36.1711 274.996 36.2002 274.82 36.2584C274.527 36.3457 274.252 36.4657 273.996 36.6184C273.739 36.7712 273.435 36.9712 273.084 37.2186L272.71 37.5023C272.124 37.9096 271.622 38.3024 271.204 38.6807C270.786 39.059 270.376 39.5682 269.973 40.2083C269.57 40.8484 269.244 41.6341 268.995 42.5652C268.951 42.7398 268.804 42.827 268.555 42.827C268.306 42.827 268.079 42.7616 267.874 42.6306ZM294.934 44.7693C294.436 44.7693 294.062 44.5583 293.813 44.1364C293.491 43.6709 293.329 43.1617 293.329 42.6088C293.329 42.3469 293.359 42.1069 293.417 41.8887C293.608 41.1321 293.831 40.4593 294.088 39.87C294.344 39.2808 294.692 38.7462 295.132 38.2661C295.176 38.0187 295.264 37.8151 295.396 37.655C295.528 37.495 295.725 37.2913 295.989 37.044C296.356 36.7094 296.597 36.4257 296.715 36.1929C296.773 36.062 296.861 35.9892 296.978 35.9747C297.125 35.9601 297.268 35.9165 297.407 35.8437C297.546 35.771 297.653 35.7055 297.726 35.6473C297.799 35.5891 297.858 35.5455 297.902 35.5164C298.151 35.3273 298.327 35.2109 298.429 35.1672C298.928 34.8763 299.565 34.7453 300.342 34.7744C300.65 34.789 300.88 34.9344 301.034 35.2109C301.188 35.4873 301.265 35.851 301.265 36.302C301.265 37.1604 301.023 38.0333 300.54 38.9208C299.616 40.6084 298.627 42.056 297.572 43.2635C297.147 43.7291 296.733 44.0964 296.33 44.3656C295.927 44.6347 295.462 44.7693 294.934 44.7693ZM294.956 43.5036C295.689 43.198 296.345 42.7288 296.924 42.096C297.502 41.4631 298.015 40.7502 298.462 39.9573C298.909 39.1644 299.47 38.0769 300.144 36.6948C300.173 36.593 300.159 36.4402 300.1 36.2365C300.041 36.0329 300.005 35.8801 299.99 35.7783L299.528 35.9529C299.294 36.0401 299.147 36.0983 299.089 36.1274L299.111 36.673C299.111 36.7894 299.096 36.8767 299.067 36.9349C298.906 37.2695 298.693 37.5095 298.429 37.655C298.4 37.6696 298.363 37.6769 298.319 37.6769C298.231 37.6769 298.155 37.6296 298.089 37.535C298.023 37.4404 297.96 37.3422 297.902 37.2404L297.836 37.1968C297.455 37.4441 297.132 37.7241 296.869 38.0369C296.605 38.3497 296.304 38.7607 295.967 39.2699C295.953 39.299 295.872 39.4227 295.725 39.6409C295.462 40.0628 295.257 40.5138 295.11 40.9939C294.963 41.474 294.839 42.0341 294.736 42.6743C294.707 42.7907 294.729 42.9362 294.802 43.1107C294.875 43.2853 294.927 43.4163 294.956 43.5036ZM316.785 44.2237C316.682 44.2383 316.536 44.2455 316.345 44.2455C315.744 44.2455 315.253 44.0709 314.872 43.7218C314.491 43.3726 314.271 42.878 314.213 42.2378C314.183 41.9178 314.169 41.685 314.169 41.5395C314.169 40.8848 314.257 40.2301 314.433 39.5754C314.608 38.9208 314.85 38.2297 315.158 37.5023C315.305 37.1822 315.378 36.9058 315.378 36.673C315.378 36.513 315.349 36.3529 315.29 36.1929C315.07 36.1638 314.865 36.1784 314.674 36.2365C314.484 36.2947 314.293 36.3675 314.103 36.4548C313.912 36.5421 313.766 36.6075 313.663 36.6512C312.842 36.9858 312.077 37.4077 311.366 37.9169C310.655 38.4261 309.816 39.0953 308.849 39.9246C308.014 40.652 307.2 41.394 306.409 42.1505C306.394 42.1651 305.991 42.5434 305.2 43.2853C305.083 43.4017 305.009 43.4672 304.98 43.4817C304.921 43.5108 304.808 43.569 304.639 43.6563C304.471 43.7436 304.317 43.8091 304.178 43.8527C304.039 43.8964 303.903 43.9182 303.771 43.9182C303.551 43.9182 303.353 43.86 303.178 43.7436C302.87 43.5399 302.716 43.2199 302.716 42.7834C302.716 42.6379 302.745 42.4051 302.804 42.0851C302.848 41.925 302.921 41.7395 303.024 41.5286C303.126 41.3176 303.2 41.1612 303.243 41.0594L304.365 38.4188C304.409 38.3024 304.555 37.9824 304.804 37.4586C304.746 37.5023 304.643 37.575 304.497 37.6769C304.35 37.7787 304.218 37.8369 304.101 37.8514L303.969 37.8733C303.749 37.8733 303.595 37.8078 303.507 37.6769C303.434 37.6041 303.383 37.5023 303.353 37.3713C303.324 37.2404 303.331 37.1458 303.375 37.0876L303.683 36.6075C303.947 36.1711 304.2 35.8183 304.442 35.5491C304.683 35.28 304.98 35.0727 305.332 34.9272C305.493 34.8544 305.64 34.7962 305.771 34.7526C305.977 34.7235 306.116 34.7089 306.189 34.7089C306.687 34.7089 306.937 34.9417 306.937 35.4073C306.937 35.6401 306.885 35.8874 306.783 36.1493C306.534 36.8185 306.05 37.9533 305.332 39.5536C305.259 39.7137 305.053 40.1865 304.716 40.9721L304.211 42.1724L306.585 40.0555C306.614 40.0264 306.885 39.8009 307.398 39.379L307.926 38.9426C308.219 38.7098 308.439 38.5279 308.585 38.397C309.45 37.7132 310.021 37.2695 310.3 37.0658C310.857 36.6876 311.289 36.4075 311.597 36.2256C311.905 36.0438 312.256 35.9019 312.652 35.8001C312.769 35.771 312.916 35.6946 313.092 35.5709C313.267 35.4473 313.399 35.3709 313.487 35.3418L313.949 35.2109C314.594 35.0072 315.085 34.9053 315.422 34.9053C315.832 34.9053 316.155 35.0181 316.389 35.2436C316.624 35.4691 316.741 35.771 316.741 36.1493C316.741 36.2947 316.733 36.4039 316.719 36.4766C316.645 36.884 316.506 37.4004 316.301 38.026C316.228 38.2297 316.133 38.5352 316.015 38.9426L315.861 39.51C315.583 40.4265 315.444 41.1612 315.444 41.7141C315.444 42.5724 315.795 43.0016 316.499 43.0016C316.719 43.0016 316.961 42.958 317.224 42.8707C317.532 42.7689 317.865 42.627 318.225 42.4451C318.584 42.2633 318.924 42.0778 319.247 41.8887L319.62 41.6704L320.873 41.0158C321.87 40.5211 322.603 40.1137 323.072 39.7937C324.068 39.0953 324.874 38.3825 325.49 37.655C325.622 37.5095 325.783 37.3459 325.973 37.164C326.164 36.9822 326.31 36.8403 326.413 36.7385C326.618 36.8985 326.721 37.0585 326.721 37.2186C326.721 37.335 326.647 37.495 326.501 37.6987C325.446 39.008 324.369 40.0555 323.27 40.8412C322.434 41.4231 321.511 42.0196 320.5 42.6306L319.73 43.1107C318.778 43.7218 317.796 44.0928 316.785 44.2237Z" fill="#D136D1"/>
</svg>
